<svg id="Icons" height="512" viewBox="0 0 60 60" width="512" xmlns="http://www.w3.org/2000/svg"><path d="m13.18 39.314h9.011v6h-9.011z" fill="#3f5c6c" transform="matrix(.707 -.707 .707 .707 -24.74 24.899)"/><circle cx="36" cy="24" fill="#547580" r="23"/><path d="m55 24a19 19 0 1 1 -1.84-8.16 19 19 0 0 1 1.84 8.16z" fill="#b0d3f0"/><path d="m3.586 57.828-1.414-1.414a4 4 0 0 1 0-5.657l8.372-8.372a2 2 0 0 1 2.829 0l4.242 4.242a2 2 0 0 1 0 2.829l-8.372 8.372a4 4 0 0 1 -5.657 0z" fill="#3b97d3"/><path d="m3.536 49.464h10v4h-10z" fill="#2980ba" transform="matrix(.707 .707 -.707 .707 38.891 9.038)"/><path d="m40 14c0 .17-.01.4-.03.68-.25 3.29-1.93 13.32-3.97 13.32-1.47 0-2.75-5.19-3.44-9.34a35.8 35.8 0 0 1 -.56-4.66 4 4 0 0 1 8 0z" fill="#e64c3c"/><path d="m55 24a19 19 0 0 1 -27.16 17.16 18.973 18.973 0 0 1 4.72-22.5c.69 4.15 1.97 9.34 3.44 9.34 2.04 0 3.72-10.03 3.97-13.32a18.565 18.565 0 0 1 5.03-.68 18.92 18.92 0 0 1 8.16 1.84 18.92 18.92 0 0 1 1.84 8.16z" fill="#90bae1"/><g fill="#c03a2b"><path d="m39.97 14.68c-.25 3.29-1.93 13.32-3.97 13.32-1.47 0-2.75-5.19-3.44-9.34a18.77 18.77 0 0 1 7.41-3.98z"/><circle cx="36" cy="35" r="3"/></g></svg>